<?xml version="1.0" encoding="UTF-8" standalone="no"?>
<!-- Created with Inkscape (http://www.inkscape.org/) -->

<svg
   width="320.2663mm"
   height="166.06485mm"
   viewBox="0 0 320.26629 166.06485"
   version="1.1"
   id="svg5"
   inkscape:version="1.1.2 (0a00cf5339, 2022-02-04)"
   sodipodi:docname="slow-fast-imperative-vectorized.svg"
   xmlns:inkscape="http://www.inkscape.org/namespaces/inkscape"
   xmlns:sodipodi="http://sodipodi.sourceforge.net/DTD/sodipodi-0.dtd"
   xmlns:xlink="http://www.w3.org/1999/xlink"
   xmlns="http://www.w3.org/2000/svg"
   xmlns:svg="http://www.w3.org/2000/svg">
  <sodipodi:namedview
     id="namedview7"
     pagecolor="#ffffff"
     bordercolor="#666666"
     borderopacity="1.0"
     inkscape:pageshadow="2"
     inkscape:pageopacity="0.0"
     inkscape:pagecheckerboard="0"
     inkscape:document-units="mm"
     showgrid="false"
     inkscape:snap-nodes="true"
     inkscape:snap-global="false"
     inkscape:zoom="1.0217903"
     inkscape:cx="522.61213"
     inkscape:cy="272.07148"
     inkscape:window-width="2554"
     inkscape:window-height="1365"
     inkscape:window-x="1920"
     inkscape:window-y="32"
     inkscape:window-maximized="1"
     inkscape:current-layer="layer1"
     fit-margin-top="5"
     fit-margin-left="5"
     fit-margin-right="5"
     fit-margin-bottom="5" />
  <defs
     id="defs2">
    <marker
       style="overflow:visible"
       id="Arrow1Mstart"
       refX="0"
       refY="0"
       orient="auto"
       inkscape:stockid="Arrow1Mstart"
       inkscape:isstock="true">
      <path
         transform="matrix(0.4,0,0,0.4,4,0)"
         style="fill:context-stroke;fill-rule:evenodd;stroke:context-stroke;stroke-width:1pt"
         d="M 0,0 5,-5 -12.5,0 5,5 Z"
         id="path3345" />
    </marker>
    <marker
       style="overflow:visible"
       id="Arrow1Mend"
       refX="0"
       refY="0"
       orient="auto"
       inkscape:stockid="Arrow1Mend"
       inkscape:isstock="true">
      <path
         transform="matrix(-0.4,0,0,-0.4,-4,0)"
         style="fill:context-stroke;fill-rule:evenodd;stroke:context-stroke;stroke-width:1pt"
         d="M 0,0 5,-5 -12.5,0 5,5 Z"
         id="path3348" />
    </marker>
    <linearGradient
       id="linearGradient2795">
      <stop
         style="stop-color:#b8b8b8;stop-opacity:0.49803922;"
         offset="0"
         id="stop2797" />
      <stop
         style="stop-color:#7f7f7f;stop-opacity:0;"
         offset="1"
         id="stop2799" />
    </linearGradient>
    <linearGradient
       id="linearGradient2787">
      <stop
         style="stop-color:#7f7f7f;stop-opacity:0.5;"
         offset="0"
         id="stop2789" />
      <stop
         style="stop-color:#7f7f7f;stop-opacity:0;"
         offset="1"
         id="stop2791" />
    </linearGradient>
    <linearGradient
       id="linearGradient3676">
      <stop
         style="stop-color:#b2b2b2;stop-opacity:0.5;"
         offset="0"
         id="stop3678" />
      <stop
         style="stop-color:#b3b3b3;stop-opacity:0;"
         offset="1"
         id="stop3680" />
    </linearGradient>
    <linearGradient
       id="linearGradient3236">
      <stop
         style="stop-color:#f4f4f4;stop-opacity:1"
         offset="0"
         id="stop3244" />
      <stop
         style="stop-color:white;stop-opacity:1"
         offset="1"
         id="stop3240" />
    </linearGradient>
    <linearGradient
       id="linearGradient4671">
      <stop
         style="stop-color:#ffd43b;stop-opacity:1;"
         offset="0"
         id="stop4673" />
      <stop
         style="stop-color:#ffe873;stop-opacity:1"
         offset="1"
         id="stop4675" />
    </linearGradient>
    <linearGradient
       id="linearGradient4689">
      <stop
         style="stop-color:#5a9fd4;stop-opacity:1;"
         offset="0"
         id="stop4691" />
      <stop
         style="stop-color:#306998;stop-opacity:1;"
         offset="1"
         id="stop4693" />
    </linearGradient>
    <linearGradient
       x1="224.23996"
       y1="144.75717"
       x2="-65.308502"
       y2="144.75717"
       id="linearGradient2987"
       xlink:href="#linearGradient4671"
       gradientUnits="userSpaceOnUse"
       gradientTransform="translate(100.2702,99.61116)" />
    <linearGradient
       x1="172.94208"
       y1="77.475983"
       x2="26.670298"
       y2="76.313133"
       id="linearGradient2990"
       xlink:href="#linearGradient4689"
       gradientUnits="userSpaceOnUse"
       gradientTransform="translate(100.2702,99.61116)" />
    <linearGradient
       inkscape:collect="always"
       xlink:href="#linearGradient4671"
       id="linearGradient2255"
       gradientUnits="userSpaceOnUse"
       gradientTransform="matrix(0.562541,0,0,0.567972,-11.5974,-7.60954)"
       x1="224.23996"
       y1="144.75717"
       x2="-65.308502"
       y2="144.75717" />
    <linearGradient
       inkscape:collect="always"
       xlink:href="#linearGradient4689"
       id="linearGradient2258"
       gradientUnits="userSpaceOnUse"
       gradientTransform="matrix(0.562541,0,0,0.567972,-11.5974,-7.60954)"
       x1="172.94208"
       y1="76.176224"
       x2="26.670298"
       y2="76.313133" />
    <radialGradient
       inkscape:collect="always"
       xlink:href="#linearGradient2795"
       id="radialGradient2801"
       cx="61.518883"
       cy="132.28575"
       fx="61.518883"
       fy="132.28575"
       r="29.036913"
       gradientTransform="matrix(1,0,0,0.177966,0,108.7434)"
       gradientUnits="userSpaceOnUse" />
    <linearGradient
       inkscape:collect="always"
       xlink:href="#linearGradient4671"
       id="linearGradient1475"
       gradientUnits="userSpaceOnUse"
       gradientTransform="matrix(0.562541,0,0,0.567972,-9.399749,-5.305317)"
       x1="150.96111"
       y1="192.35176"
       x2="112.03144"
       y2="137.27299" />
    <linearGradient
       inkscape:collect="always"
       xlink:href="#linearGradient4689"
       id="linearGradient1478"
       gradientUnits="userSpaceOnUse"
       gradientTransform="matrix(0.562541,0,0,0.567972,-9.399749,-5.305317)"
       x1="26.648937"
       y1="20.603781"
       x2="135.66525"
       y2="114.39767" />
    <radialGradient
       inkscape:collect="always"
       xlink:href="#linearGradient2795"
       id="radialGradient1480"
       gradientUnits="userSpaceOnUse"
       gradientTransform="matrix(2.382716e-8,-0.296405,1.43676,4.683673e-7,-128.544,150.5202)"
       cx="61.518883"
       cy="132.28575"
       fx="61.518883"
       fy="132.28575"
       r="29.036913" />
    <style
       id="style2692">.cls-1{fill:#4d77cf;}.cls-2{fill:#4dabcf;}</style>
    <style
       id="style2849">.cls-1{fill:#5e97f6;}.cls-1,.cls-2,.cls-3,.cls-4,.cls-5,.cls-6,.cls-7,.cls-8,.cls-9{stroke:#dce0df;stroke-linejoin:round;}.cls-2{fill:#2a56c6;}.cls-3{fill:#00796b;}.cls-4{fill:#3367d6;}.cls-5{fill:#26a69a;}.cls-6{fill:#9c27b0;}.cls-7{fill:#6a1b9a;}.cls-8{fill:#00695c;}.cls-9{fill:#ea80fc;}</style>
  </defs>
  <g
     inkscape:label="Layer 1"
     inkscape:groupmode="layer"
     id="layer1"
     transform="translate(8.790106,-26.749484)">
    <g
       id="g1465"
       transform="matrix(0.14557606,0,0,0.14557606,27.781528,135.15415)">
      <path
         id="path46"
         style="fill:#646464;fill-opacity:1"
         d="m 184.61344,61.929363 c 0,-14.56215 -4.15226,-22.03817 -12.45678,-22.44755 -3.30427,-0.15595 -6.53055,0.37039 -9.66912,1.58878 -2.505,0.89673 -4.19124,1.78372 -5.07823,2.68045 v 34.75812 c 5.31216,3.33351 10.02976,4.88329 14.14303,4.63962 8.70415,-0.57508 13.0611,-7.64172 13.0611,-21.21942 z m 10.24419,0.60432 c 0,7.39804 -1.73498,13.53871 -5.22444,18.422 -3.88909,5.5266 -9.27923,8.37275 -16.17042,8.52871 -5.1952,0.1657 -10.54635,-1.46207 -16.05346,-4.87355 v 31.590317 l -8.90884,-3.17755 V 42.903043 c 1.46206,-1.79346 3.34325,-3.3335 5.62407,-4.63961 5.30242,-3.08983 11.74524,-4.67861 19.32848,-4.75658 l 0.12671,0.12671 c 6.93018,-0.08773 12.27159,2.75843 16.02422,8.5287 3.4992,5.29267 5.25368,12.07665 5.25368,20.37142 z" />
      <path
         id="path48"
         style="fill:#646464;fill-opacity:1"
         d="m 249.30487,83.265743 c 0,9.92254 -0.9942,16.794237 -2.9826,20.615097 -1.99816,3.82086 -5.79952,6.8717 -11.41385,9.14277 -4.55189,1.79346 -9.47417,2.76817 -14.75709,2.93387 l -1.47181,-5.61432 c 5.37064,-0.73103 9.15252,-1.46207 11.34561,-2.1931 4.31796,-1.46206 7.28108,-3.70389 8.90884,-6.706 1.30611,-2.446517 1.94942,-7.115367 1.94942,-14.026057 v -2.3198 c -6.09193,2.76817 -12.47628,4.14251 -19.15303,4.14251 -4.38619,0 -8.25579,-1.37434 -11.58929,-4.14251 -3.74289,-3.01186 -5.61433,-6.83272 -5.61433,-11.46258 v -37.07793 l 8.90884,-3.05084 v 37.3216 c 0,3.98656 1.28662,7.0569 3.85985,9.21101 2.57323,2.1541 5.90674,3.18729 9.99077,3.10932 4.08403,-0.08773 8.46047,-1.66676 13.10983,-4.75658 v -43.54025 h 8.90884 z" />
      <path
         id="path50"
         style="fill:#646464;fill-opacity:1"
         d="m 284.08249,88.997033 c -1.06243,0.08772 -2.03714,0.12671 -2.93387,0.12671 -5.03925,0 -8.96733,-1.19889 -11.77449,-3.60642 -2.79742,-2.40753 -4.20099,-5.73129 -4.20099,-9.97127 v -35.08953 h -6.10168 v -5.60457 h 6.10168 v -14.88381 l 8.89909,-3.16781 v 18.05162 h 10.01026 v 5.60457 h -10.01026 v 34.84585 c 0,3.34325 0.89673,5.71179 2.6902,7.09588 1.54004,1.14041 3.98656,1.79347 7.32006,1.95917 z" />
      <path
         id="path52"
         style="fill:#646464;fill-opacity:1"
         d="m 338.02288,88.266003 h -8.90884 v -34.38773 c 0,-3.49921 -0.81876,-6.51106 -2.44651,-9.02581 -1.88119,-2.84615 -4.49342,-4.26923 -7.84641,-4.26923 -4.08404,0 -9.19152,2.15411 -15.32242,6.46233 v 41.22044 h -8.90885 V 6.0687929 l 8.90885,-2.80716 V 40.700203 c 5.6923,-4.14251 11.91093,-6.21864 18.66566,-6.21864 4.7176,0 8.53846,1.58877 11.46258,4.75658 2.93388,3.1678 4.39594,7.11537 4.39594,11.83296 z" />
      <path
         id="path54"
         style="fill:#646464;fill-opacity:1"
         d="m 385.37424,60.525783 c 0,-5.59483 -1.06242,-10.21495 -3.17755,-13.87011 -2.51474,-4.45442 -6.42332,-6.80347 -11.70625,-7.04715 -9.76658,0.56534 -14.64012,7.56375 -14.64012,20.97574 0,6.15042 1.01369,11.28713 3.06057,15.41015 2.61223,5.25368 6.53056,7.84641 11.755,7.75869 9.80557,-0.07798 14.70835,-7.81717 14.70835,-23.22732 z m 9.75685,0.05848 c 0,7.96338 -2.03714,14.5914 -6.10168,19.88407 -4.47391,5.92623 -10.65357,8.89909 -18.53897,8.89909 -7.81716,0 -13.90909,-2.97286 -18.30503,-8.89909 -3.98656,-5.29267 -5.97497,-11.92069 -5.97497,-19.88407 0,-7.48576 2.15411,-13.78238 6.46232,-18.90935 4.5519,-5.43888 10.53661,-8.16806 17.93464,-8.16806 7.39805,0 13.42174,2.72918 18.06137,8.16806 4.3082,5.12697 6.46232,11.42359 6.46232,18.90935 z" />
      <path
         id="path56"
         style="fill:#646464;fill-opacity:1"
         d="m 446.20583,88.266003 h -8.90884 v -36.33715 c 0,-3.98656 -1.19889,-7.09588 -3.59667,-9.33772 -2.39779,-2.23208 -5.59483,-3.31401 -9.58139,-3.22628 -4.23023,0.07798 -8.25579,1.46206 -12.07664,4.14251 v 44.75864 h -8.90884 v -45.86006 c 5.12697,-3.73313 9.84456,-6.16991 14.15276,-7.31032 4.06455,-1.06243 7.65148,-1.58877 10.74131,-1.58877 2.11512,0 4.10352,0.20469 5.97496,0.61406 3.49921,0.80901 6.34535,2.31006 8.53845,4.51291 2.44651,2.43677 3.6649,5.3609 3.6649,8.78212 z" />
      <path
         style="fill:url(#linearGradient1478);fill-opacity:1"
         d="m 60.510156,6.3979729 c -4.583653,0.021298 -8.960939,0.4122177 -12.8125,1.09375 C 36.35144,9.4962267 34.291407,13.691825 34.291406,21.429223 v 10.21875 h 26.8125 v 3.40625 h -26.8125 -10.0625 c -7.792459,0 -14.6157592,4.683717 -16.7500002,13.59375 -2.46182,10.212966 -2.5710151,16.586023 0,27.25 1.9059283,7.937852 6.4575432,13.593748 14.2500002,13.59375 h 9.21875 v -12.25 c 0,-8.849902 7.657144,-16.656248 16.75,-16.65625 h 26.78125 c 7.454951,0 13.406253,-6.138164 13.40625,-13.625 v -25.53125 c 0,-7.266339 -6.12998,-12.7247775 -13.40625,-13.9375001 -4.605987,-0.7667253 -9.385097,-1.1150483 -13.96875,-1.09375 z m -14.5,8.2187501 c 2.769547,0 5.03125,2.298646 5.03125,5.125 -2e-6,2.816336 -2.261703,5.09375 -5.03125,5.09375 -2.779476,-1e-6 -5.03125,-2.277415 -5.03125,-5.09375 -1e-6,-2.826353 2.251774,-5.125 5.03125,-5.125 z"
         id="path1948" />
      <path
         style="fill:url(#linearGradient1475);fill-opacity:1"
         d="m 91.228906,35.054223 v 11.90625 c 0,9.230755 -7.825895,16.999999 -16.75,17 h -26.78125 c -7.335833,0 -13.406249,6.278483 -13.40625,13.625 v 25.531247 c 0,7.26634 6.318588,11.54032 13.40625,13.625 8.487331,2.49561 16.626237,2.94663 26.78125,0 6.750155,-1.95439 13.406253,-5.88761 13.40625,-13.625 V 92.897973 h -26.78125 v -3.40625 h 26.78125 13.406254 c 7.79246,0 10.69625,-5.435408 13.40624,-13.59375 2.79933,-8.398886 2.68022,-16.475776 0,-27.25 -1.92578,-7.757441 -5.60387,-13.59375 -13.40624,-13.59375 z m -15.0625,64.65625 c 2.779478,3e-6 5.03125,2.277417 5.03125,5.093747 -2e-6,2.82635 -2.251775,5.125 -5.03125,5.125 -2.76955,0 -5.03125,-2.29865 -5.03125,-5.125 2e-6,-2.81633 2.261697,-5.093747 5.03125,-5.093747 z"
         id="path1950" />
      <path
         d="m 463.5544,26.909383 h 1.56195 v -9.79624 h 3.70013 v -1.16766 h -8.96221 v 1.16766 h 3.70013 v 9.79624 m 6.64702,0 h 1.33447 v -8.94703 l 2.89641,8.945906 h 1.48569 l 3.01816,-8.915576 v 8.9167 h 1.45579 v -10.9639 h -1.92589 l -3.29831,9.392857 -2.81297,-9.392857 h -2.15335 v 10.9639"
         style="font-style:normal;font-weight:normal;font-size:15.1645px;line-height:125%;font-family:'Bitstream Vera Sans';fill:#646464;fill-opacity:1;stroke:none;stroke-width:1px;stroke-linecap:butt;stroke-linejoin:miter;stroke-opacity:1"
         id="text3004"
         sodipodi:nodetypes="ccccccccccccccccccccccc" />
      <ellipse
         style="opacity:0.44382;fill:url(#radialGradient1480);fill-opacity:1;fill-rule:nonzero;stroke:none;stroke-width:20;stroke-miterlimit:4;stroke-dasharray:none;stroke-opacity:1"
         id="path1894"
         transform="matrix(0.73406,0,0,0.809524,16.24958,27.00935)"
         cx="61.518883"
         cy="132.28575"
         rx="48.948284"
         ry="8.6066771" />
    </g>
    <g
       id="g2637"
       transform="matrix(0.03592972,0,0,0.03592972,225.62797,136.67698)">
      <rect
         x="22.5"
         y="22.5"
         class="st0"
         width="455"
         height="455"
         id="rect2579" />
      <path
         class="st1"
         d="M 301.6,64.3"
         id="path2594" />
      <g
         id="g2616">
	<g
   id="g2600">
		<g
   id="g2598">
			<path
   class="st2"
   d="m 318.2,310.3 c 0,0 136.3,-100.5 81.1,-165.5 -64,-75.4 -243.4,84.5 -263,52 C 116.7,164.3 295.5,86.4 314.9,73.4 317,72 317.6,69.3 317,66.2 l 20.7,-2.4 -12.9,-6.5 3.3,-12.9 -15,11.7 C 307.5,46 297.9,35.1 292.4,31.3 272.9,18.4 237.2,21.5 185.3,47.5 133.4,73.5 13,154.6 74.6,245.5 c 55.2,81.1 213.8,-58.3 240.3,-35.8 22.7,19.5 -152.5,139.6 -152.5,139.6 0,0 74.4,0 74.7,0 C 224.2,381.8 162.4,476 162.4,476 L 387.2,313.6 c -23.6,-3.5 -69,-3.3 -69,-3.3 z M 257.1,41 c 8,-0.6 14.9,5.6 15.5,13.5 0.6,8 -5.6,14.9 -13.5,15.5 -8,0.6 -14.9,-5.6 -15.5,-13.5 -0.6,-7.9 5.5,-14.9 13.5,-15.5 z"
   id="path2596" />

		</g>

	</g>

	<g
   id="g2614">
		<g
   id="g2612">
			<path
   class="st2"
   d="M 685.5,376.4 C 667,343.5 646.9,311 625.4,279 603.8,246.9 580.9,216.6 556.5,188.2 V 376.5 H 492.6 V 89 h 52.7 c 9.1,9.1 19.2,20.3 30.3,33.6 11.1,13.3 22.3,27.4 33.8,42.5 11.5,15.1 22.9,30.7 34.2,46.9 11.3,16.2 22,31.7 31.9,46.7 V 89 h 64.3 v 287.4 z"
   id="path2602" />

			<path
   class="st2"
   d="m 988.3,369 c -10.5,3 -24.1,5.9 -40.6,8.5 -16.5,2.6 -34,3.9 -52.3,3.9 -18.5,0 -33.9,-2.5 -46.2,-7.5 -12.3,-5 -22.1,-12 -29.2,-20.9 -7.2,-9 -12.3,-19.7 -15.3,-32.1 -3,-12.4 -4.6,-26.1 -4.6,-41.1 V 158.3 h 61.8 v 114.1 c 0,19.9 2.6,34.3 7.9,43.1 5.2,8.9 15.1,13.3 29.4,13.3 4.4,0 9.1,-0.2 14.1,-0.6 5,-0.4 9.4,-0.9 13.3,-1.5 V 158.3 h 61.8 V 369 Z"
   id="path2604" />

			<path
   class="st2"
   d="m 1166.2,260.7 c 0,-19.9 -2.6,-34 -7.7,-42.3 -5.1,-8.3 -13.9,-12.4 -26.3,-12.4 -3.9,0 -7.9,0.2 -12,0.6 -4.1,0.4 -8.2,0.9 -12,1.5 v 168.4 h -61.8 V 165.7 c 5.2,-1.4 11.4,-2.8 18.5,-4.4 7.1,-1.5 14.5,-2.9 22.4,-4.1 7.9,-1.2 16,-2.2 24.3,-2.9 8.3,-0.7 16.4,-1 24.5,-1 15.8,0 28.5,2 38.4,6 9.8,4 17.9,8.8 24.3,14.3 8.8,-6.4 19,-11.3 30.5,-14.9 11.5,-3.6 22,-5.4 31.7,-5.4 17.4,0 31.7,2.4 42.9,7.3 11.2,4.8 20.1,11.7 26.8,20.5 6.6,8.9 11.2,19.4 13.7,31.5 2.5,12.2 3.7,25.7 3.7,40.6 v 123.2 h -61.8 V 260.7 c 0,-19.9 -2.6,-34 -7.7,-42.3 -5.1,-8.3 -13.9,-12.4 -26.3,-12.4 -3.3,0 -8,0.8 -13.9,2.5 -6,1.7 -10.9,3.7 -14.7,6.2 1.9,6.4 3.2,13.1 3.7,20.1 0.6,7.1 0.8,14.6 0.8,22.6 v 119 h -61.8 V 260.7 Z"
   id="path2606" />

			<path
   class="st2"
   d="m 1606.7,267.3 c 0,17.4 -2.6,33.2 -7.7,47.3 -5.1,14.1 -12.5,26.1 -22.2,36.1 -9.7,10 -21.6,17.6 -35.7,23 -14.1,5.4 -30.1,8.1 -48.1,8.1 -7.5,0 -15.3,-0.3 -23.4,-1 -8.2,-0.7 -16.2,-1.6 -24.1,-2.7 -7.9,-1.1 -15.4,-2.4 -22.6,-3.9 -7.2,-1.5 -13.6,-3.1 -19.1,-4.8 V 64.5 l 61.8,-10 v 108.7 c 6.9,-3 14.1,-5.4 21.6,-7.1 7.5,-1.7 15.5,-2.5 24.1,-2.5 15.5,0 29.2,2.7 41.1,8.1 11.9,5.4 21.8,13.1 29.9,23 8,10 14.1,21.9 18.2,35.9 4.1,14.1 6.2,29.6 6.2,46.7 z m -63.1,-1.6 c 0,-39.8 -14.7,-59.7 -44,-59.7 -6.4,0 -12.7,0.8 -18.9,2.5 -6.2,1.7 -11.3,3.7 -15.1,6.2 v 112.4 c 3,0.6 6.9,1 11.6,1.5 4.7,0.4 9.8,0.6 15.3,0.6 16.9,0 29.6,-5.8 38.2,-17.4 8.7,-11.7 12.9,-27 12.9,-46.1 z"
   id="path2608" />

			<path
   class="st2"
   d="m 1732.8,152.5 c 18.2,0 33.5,2.1 45.6,6.2 12.2,4.1 21.9,10.1 29.2,17.8 7.3,7.7 12.5,17.1 15.6,28.2 3,11.1 4.6,23.4 4.6,36.9 v 128.6 c -8.9,1.9 -21.2,4.2 -36.9,6.8 -15.8,2.6 -34.8,3.9 -57.2,3.9 -14.1,0 -26.9,-1.2 -38.4,-3.7 -11.5,-2.5 -21.4,-6.6 -29.7,-12.2 -8.3,-5.7 -14.7,-13.1 -19.1,-22.2 -4.4,-9.1 -6.6,-20.3 -6.6,-33.6 0,-12.7 2.6,-23.5 7.7,-32.4 5.1,-8.8 12,-15.9 20.5,-21.2 8.6,-5.2 18.4,-9.1 29.4,-11.4 11.1,-2.3 22.5,-3.5 34.4,-3.5 8,0 15.1,0.3 21.4,1 6.2,0.7 11.3,1.6 15.1,2.7 v -5.8 c 0,-10.5 -3.2,-18.9 -9.5,-25.3 -6.4,-6.4 -17.4,-9.5 -33.2,-9.5 -10.5,0 -20.9,0.8 -31.1,2.3 -10.2,1.5 -19.1,3.7 -26.5,6.4 l -7.9,-49.8 c 3.6,-1.1 8.1,-2.3 13.5,-3.5 5.4,-1.2 11.3,-2.3 17.6,-3.3 6.4,-1 13.1,-1.8 20.1,-2.5 7.1,-0.6 14.2,-0.9 21.4,-0.9 z m 4.9,180.8 c 6.1,0 11.9,-0.1 17.4,-0.4 5.5,-0.3 10,-0.7 13.3,-1.2 v -46.9 c -2.5,-0.6 -6.2,-1.1 -11.2,-1.7 -5,-0.6 -9.5,-0.8 -13.7,-0.8 -5.8,0 -11.3,0.3 -16.4,1 -5.1,0.7 -9.6,2 -13.5,3.9 -3.9,1.9 -6.9,4.6 -9.1,7.9 -2.2,3.3 -3.3,7.5 -3.3,12.4 0,9.7 3.2,16.4 9.7,20.1 6.6,3.8 15.5,5.7 26.8,5.7 z"
   id="path2610" />

		</g>

	</g>

</g>
    </g>
    <g
       style="color:#000000;font-style:normal;font-variant:normal;font-weight:bold;font-stretch:normal;font-size:144px;line-height:125%;font-family:'DejaVu Sans';-inkscape-font-specification:'Sans Bold';text-align:center;letter-spacing:0px;word-spacing:0px;text-anchor:middle;display:inline;overflow:visible;visibility:visible;fill:#bcbcbc;fill-opacity:1;fill-rule:nonzero;stroke:none;stroke-width:10;marker:none;enable-background:accumulate"
       id="text3385"
       transform="matrix(0.02842211,0,0,0.02842211,161.2144,60.578716)">
      <path
         inkscape:connector-curvature="0"
         d="M -201.19688,229.04587 -309.1626,481.12441 c -21.87849,51.36691 -39.47648,69.91615 -67.53803,72.76986 v 25.68348 h 137.45417 v -25.68348 c -34.24461,-1.90248 -47.562,-10.93928 -47.562,-32.81777 0,-8.08553 1.42687,-13.31736 7.60992,-27.11034 l 7.60992,-18.07355 h 125.03519 l 18.07356,46.61076 c 3.80496,8.56114 -0.89839,15.69544 -0.89839,19.5004 0,8.56117 -6.18308,11.41489 -27.58595,11.41489 l -8.08554,0.47561 v 25.68348 H 1.892843 v -25.68348 c -27.110312,-0.95124 -34.720272,-5.70748 -44.70828,-29.96406 L -165.04975,229.04587 h -36.14713 m -3.38218,101.30704 46.13513,113.67315 h -100.77858 l 48.03762,-113.67315"
         style="color:#000000;font-family:'Century Schoolbook L';-inkscape-font-specification:'Century Schoolbook L Bold';display:inline;overflow:visible;visibility:visible;fill:#808080;fill-opacity:1;fill-rule:nonzero;stroke:none;stroke-width:33.0292;marker:none;enable-background:accumulate"
         id="path3392"
         sodipodi:nodetypes="ccccccsccccscccccccccccc" />
      <path
         d="M 228.43569,506.33228 184.67866,400.26903 c -1.90248,-4.28056 -2.85371,-8.08552 -2.85371,-10.46363 0,-7.60993 7.60994,-10.93926 25.68346,-10.93926 h 3.32933 V 354.60952 H 78.139784 v 24.25662 c 17.597919,0 22.829756,3.32933 29.012826,18.07356 L 119.0431,425.4769 84.798479,506.33228 43.419547,401.22027 c -3.329348,-8.56116 -3.329348,-8.56116 -3.329348,-10.93926 0,-9.03676 4.280625,-10.93925 23.305387,-11.41487 V 354.60952 H -67.87552 v 24.25662 c 18.549148,0.95124 25.207856,6.65871 33.76902,26.63472 L 43.419547,586.23642 H 79.56665 l 54.22069,-125.08803 50.89132,125.08803 h 35.67149 l 74.67234,-166.94259 c 13.79297,-30.43965 23.30541,-39.00082 44.70826,-40.42769 v -24.25662 h -107.4901 v 24.25662 h 3.32934 c 19.976,0 32.81777,8.56116 32.81777,21.87852 0,5.70744 -1.90246,13.31734 -6.65867,24.73224 l -33.2934,80.85538"
         style="color:#000000;font-family:'Century Schoolbook L';-inkscape-font-specification:'Century Schoolbook L Bold';display:inline;overflow:visible;visibility:visible;fill:#808080;fill-opacity:1;fill-rule:nonzero;stroke:none;stroke-width:33.0292;marker:none;enable-background:accumulate"
         id="path3394"
         inkscape:connector-curvature="0" />
      <path
         id="path3396"
         style="color:#000000;font-family:'Century Schoolbook L';-inkscape-font-specification:'Century Schoolbook L Bold';display:inline;overflow:visible;visibility:visible;fill:#808080;fill-opacity:1;fill-rule:nonzero;stroke:none;stroke-width:33.0292;marker:none;enable-background:accumulate"
         d="m 409.88217,213.40388 -112.47323,20.75126 2.90453,24.08213 8.97176,-1.08211 c 28.80405,-3.474 30.44845,-1.75602 35.51711,40.26955 l 24.71686,204.93391 2.67671,22.19327 c 2.27802,18.88788 -2.57446,22.3476 -33.26729,26.04941 l -1.88882,0.2279 2.90452,24.0821 144.02039,-17.3701 -2.90453,-24.08211 c -27.38743,3.30314 -32.50811,0.56724 -34.78617,-18.32064 l -2.61975,-21.72111 -1.59464,-13.22152 19.38611,-21.97986 c 16.05642,11.61441 32.21181,23.08942 48.37513,34.55407 5.45041,4.17853 10.00531,6.90013 11.80277,10.78505 2.59636,5.61149 -1.61716,11.22946 -12.8402,16.42214 l -4.31659,1.99714 10.18562,22.01443 132.08675,-61.11377 -10.18566,-22.01442 c -15.10793,6.99012 -20.39095,5.766 -50.76766,-10.05082 -26.72285,-17.25583 -53.80917,-33.91988 -80.93008,-50.53721 l 32.71436,-34.6059 c 17.36678,-18.86193 30.37719,-26.17991 48.32068,-28.34404 l 10.86054,-1.30987 -2.9045,-24.0821 -138.82621,16.74367 2.90453,24.08211 5.66635,-0.68343 c 17.94352,-2.16413 28.90141,1.30489 29.92653,9.80444 0.68342,5.66638 -1.93856,11.73144 -9.5269,20.31172 l -46.14596,63.06399 -27.96306,-231.84918"
         inkscape:connector-curvature="0"
         sodipodi:nodetypes="cccsscscccccsccccsscccccccsccccssccc" />
      <path
         d="M 911.27662,495.66841 879.09089,385.54044 c -1.43468,-4.4592 -1.97429,-8.34395 -1.72049,-10.70845 0.81235,-7.56644 8.7341,-10.06448 26.70439,-8.13528 l 3.31043,0.35536 2.58907,-24.11803 -131.93976,-14.16443 -2.58919,24.11803 c 17.49733,1.87841 22.34393,5.74721 26.91784,21.06716 l 8.77645,29.64339 -42.67963,76.73809 -29.92266,-108.9283 c -2.39654,-8.86766 -2.39654,-8.86766 -2.14266,-11.23214 0.9646,-8.98517 5.42384,-10.41984 24.39066,-8.86204 l 2.58919,-24.11802 -130.5211,-14.01209 -2.58919,24.11802 c 18.34163,2.92577 24.35306,9.31141 30.73304,30.08712 l 57.79107,187.97825 35.94064,3.85838 67.26297,-118.58578 37.24846,129.80564 35.46775,3.80763 92.0655,-158.01812 c 16.96323,-28.79349 27.33523,-36.29035 48.76813,-35.42449 l 2.5891,-24.11803 -106.87589,-11.47367 -2.58919,24.11802 3.31031,0.35533 c 19.86185,2.13231 31.71636,12.01529 30.29487,25.25655 -0.60915,5.67483 -3.31319,13.03818 -9.26052,23.88018 l -41.73386,76.83963"
         style="color:#000000;font-family:'Century Schoolbook L';-inkscape-font-specification:'Century Schoolbook L Bold';display:inline;overflow:visible;visibility:visible;fill:#808080;fill-opacity:1;fill-rule:nonzero;stroke:none;stroke-width:33.0292;marker:none;enable-background:accumulate"
         id="path3398"
         inkscape:connector-curvature="0" />
      <path
         d="m 1799.0496,229.04587 -120.3318,7.1343 v 24.2566 h 15.2199 c 29.0127,0 30.4397,1.90251 30.4397,44.23266 v 74.67233 c -18.0738,-21.87848 -39.4766,-31.86655 -69.4406,-31.86655 -60.8794,0 -108.4414,53.74513 -108.4414,123.18557 0,68.96484 42.3304,116.05127 104.1607,116.05127 34.2447,0 58.5014,-12.84176 78.0017,-41.37894 v 34.24464 l 111.2951,-5.23183 v -25.68347 h -12.8417 c -17.1222,0 -18.5492,0 -22.3541,-3.32934 -4.2807,-3.80495 -5.7075,-9.51241 -5.7075,-23.781 V 229.04587 m -122.2342,150.77151 c 29.4882,0 48.5132,34.24471 48.5132,87.03844 0,51.8425 -19.9761,87.51408 -49.4647,87.51408 -29.9638,0 -47.0863,-30.43975 -47.0863,-84.66035 0,-56.59871 17.5981,-89.89217 48.0378,-89.89217"
         style="color:#000000;font-family:'Century Schoolbook L';-inkscape-font-specification:'Century Schoolbook L Bold';display:inline;overflow:visible;visibility:visible;fill:#808080;fill-opacity:1;fill-rule:nonzero;stroke:none;stroke-width:33.0292;marker:none;enable-background:accumulate"
         id="path3404"
         inkscape:connector-curvature="0" />
      <path
         d="m 509.89636,743.67264 c -21.87849,51.36687 -39.47645,69.91612 -67.53802,72.76985 v 25.68347 H 579.8125 v -25.68347 c -34.24457,-1.90249 -47.56201,-10.9393 -47.56201,-32.81779 0,-8.08553 1.4269,-13.31736 7.60993,-27.11033 l 7.60992,-18.07355 h 125.03519 l 18.07357,46.61074 c 3.80496,8.56117 5.70743,15.69547 5.70743,19.50043 0,8.56116 -12.78888,11.41487 -34.19179,11.41487 l -8.08555,0.47563 v 25.68347 h 166.94262 v -25.68347 c -27.11031,-0.95124 -34.72026,-5.70748 -44.70829,-29.96406 L 634.54558,501.03099 604.88635,515.18635 m 9.59356,77.71476 46.13513,113.67317 H 559.83645 l 48.03762,-113.67317"
         style="color:#000000;font-family:'Century Schoolbook L';-inkscape-font-specification:'Century Schoolbook L Bold';display:inline;overflow:visible;visibility:visible;fill:#808080;fill-opacity:1;fill-rule:nonzero;stroke:none;stroke-width:33.0292;marker:none;enable-background:accumulate"
         id="path3406"
         inkscape:connector-curvature="0"
         sodipodi:nodetypes="cccccsccccscccccccccccc" />
      <path
         d="m 1553.5661,690.87883 c 0,-30.91527 -5.7074,-45.65952 -22.3541,-58.97689 -17.598,-14.2686 -47.5621,-21.8785 -84.6604,-21.8785 -65.6354,0 -108.4413,24.25664 -108.4413,61.35496 0,20.45162 16.6468,35.67149 38.5252,35.67149 21.8785,0 21.3436,-17.56738 18.1787,-31.05226 -3.1649,-13.48487 -1.1212,-16.70543 6.755,-24.97949 7.8761,-8.27407 19.299,-16.26247 38.3238,-16.26247 28.5371,0 39.0008,12.36614 39.0008,45.1839 v 24.73223 c -5.2319,1.42685 -11.4149,2.85372 -15.6954,3.32934 -48.0377,10.46364 -64.6844,14.74421 -87.0386,23.781 -34.7201,14.2686 -50.8913,33.29343 -50.8913,61.83059 0,35.19585 27.1105,55.64753 73.2455,55.64753 40.9033,0 65.6355,-9.03682 90.8434,-33.76901 8.0855,21.40286 26.1591,33.76901 50.4157,33.76901 27.1104,0 52.3183,-19.02484 52.3183,-39.47647 0,-4.75619 -2.8538,-7.6099 -7.1344,-7.6099 -2.8536,0 -5.7074,0.95123 -9.5123,3.32934 -4.2806,2.85372 -5.7075,3.32934 -9.0369,3.32934 -10.4636,0 -12.8417,-6.65871 -12.8417,-34.24464 v -83.7091 m -74.6723,39.47645 V 756.99 c 0,36.62269 -17.1223,59.92809 -43.7571,59.92809 -18.5491,0 -30.4397,-12.84176 -30.4397,-33.29339 0,-25.20782 14.7443,-39.47645 48.989,-47.56199 l 25.2078,-5.70743"
         style="color:#000000;font-family:'Century Schoolbook L';-inkscape-font-specification:'Century Schoolbook L Bold';display:inline;overflow:visible;visibility:visible;fill:#808080;fill-opacity:1;fill-rule:nonzero;stroke:none;stroke-width:33.0292;marker:none;enable-background:accumulate"
         id="path3412"
         inkscape:connector-curvature="0"
         sodipodi:nodetypes="ccssszzsscccsscssscssccssscc" />
      <path
         d="M 1726.2797,766.97801 1675.8639,664.2441 c -2.378,-4.7562 -3.8048,-9.5124 -3.8048,-12.84174 0,-6.65867 5.2319,-9.98802 16.6466,-9.98802 h 8.5612 v -24.2566 h -135.076 v 24.2566 c 17.5978,0.47563 21.4029,3.32935 29.0128,19.0248 l 97.502,189.29674 c -17.9722,47.91104 -50.156,93.76007 -81.2607,99.7983 -2.3781,0 -5.6065,0.80046 -4.2807,-2.85372 1.3259,-3.65418 4.277,-7.23184 4.2807,-10.99209 0.02,-19.02478 -14.7443,-32.34216 -35.6715,-32.34216 -23.3055,0 -41.379,18.07357 -41.379,41.37892 0,26.15906 23.3054,43.75703 58.9768,43.75703 39.9521,0 98.3832,-72.63518 124.0667,-128.75827 l 83.2335,-179.3087 c 13.7929,-29.01279 23.781,-38.04959 43.2814,-39.00085 v -24.2566 h -107.0144 v 24.2566 h 5.2317 c 20.4517,0 31.8665,6.65869 31.8665,19.0248 0,5.23182 -1.9024,13.79298 -4.2804,19.50043 l -39.4766,87.03844"
         style="color:#000000;font-family:'Century Schoolbook L';-inkscape-font-specification:'Century Schoolbook L Bold';display:inline;overflow:visible;visibility:visible;fill:#808080;fill-opacity:1;fill-rule:nonzero;stroke:none;stroke-width:33.0292;marker:none;enable-background:accumulate"
         id="path3414"
         inkscape:connector-curvature="0"
         sodipodi:nodetypes="ccssccccccczssssccccccsscc" />
      <g
         style="color:#000000;font-weight:normal;font-size:139.291px;line-height:125%;font-family:'Liberation Serif';-inkscape-font-specification:'Liberation Serif';display:inline;overflow:visible;visibility:visible;fill:#808080;fill-opacity:1;fill-rule:nonzero;stroke:none;stroke-width:10;marker:none;enable-background:accumulate"
         id="text2999"
         transform="matrix(3.3029161,0,0,3.3029161,-259.66618,-916.1037)">
        <path
           id="path3007"
           style="color:#000000;font-family:'URW Bookman L';-inkscape-font-specification:'URW Bookman L';display:inline;overflow:visible;visibility:visible;fill:#808080;fill-opacity:1;fill-rule:nonzero;stroke:none;stroke-width:10;marker:none;enable-background:accumulate"
           d="m 435.57667,463.33058 -28.07139,1.89188 v 7.344 h 2.16 c 8.784,0 9.216,0.57601 9.216,13.968 v 25.056 6.624 c 0,5.90399 -1.584,6.768 -10.8,6.768 h -0.576 v 7.344 h 48.096 v -7.344 h -3.168 c -9.21599,0 -12.76429,-0.86401 -12.76429,-6.768 -0.0664,-3.50465 0.10209,-7.42552 -0.0607,-10.67831 0.48148,-6.5818 2.83776,-26.07463 12.81479,-31.37174 2.9954,-1.59035 7.45013,0.41787 9.95737,2.08937 2.36795,1.81078 4.59661,4.50724 7.10385,4.50724 4.59661,0 7.9396,-7.20371 7.9396,-11.66102 0,-4.59661 -4.17874,-7.80031 -10.16826,-7.80031 -12.01371,-0.99261 -24.88244,7.09205 -31.64735,12.57549 l 0.17991,-0.35847 c -0.12363,-3.74975 -0.1709,-7.51465 -0.1709,-11.30225"
           inkscape:connector-curvature="0"
           sodipodi:nodetypes="cccsscssccccsccscsscccc" />
      </g>
      <g
         transform="matrix(3.3029161,0,0,3.3029161,-506.76498,-916.1037)"
         id="g3029"
         style="color:#000000;font-weight:normal;font-size:139.291px;line-height:125%;font-family:'Liberation Serif';-inkscape-font-specification:'Liberation Serif';display:inline;overflow:visible;visibility:visible;fill:#808080;fill-opacity:1;fill-rule:nonzero;stroke:none;stroke-width:10;marker:none;enable-background:accumulate">
        <path
           sodipodi:nodetypes="cccsscssccccsccscsscccc"
           inkscape:connector-curvature="0"
           d="m 435.57667,463.33058 -28.07139,1.89188 v 7.344 h 2.16 c 8.784,0 9.216,0.57601 9.216,13.968 v 25.056 6.624 c 0,5.90399 -1.584,6.768 -10.8,6.768 h -0.576 v 7.344 h 48.096 v -7.344 h -3.168 c -9.21599,0 -12.76429,-0.86401 -12.76429,-6.768 -0.0664,-3.50465 0.10209,-7.42552 -0.0607,-10.67831 0.48148,-6.5818 2.83776,-26.07463 12.81479,-31.37174 2.9954,-1.59035 7.45013,0.41787 9.95737,2.08937 2.36795,1.81078 4.59661,4.50724 7.10385,4.50724 4.59661,0 7.9396,-7.20371 7.9396,-11.66102 0,-4.59661 -4.17874,-7.80031 -10.16826,-7.80031 -12.01371,-0.99261 -24.88244,7.09205 -31.64735,12.57549 l 0.17991,-0.35847 c -0.12363,-3.74975 -0.1709,-7.51465 -0.1709,-11.30225"
           style="color:#000000;font-family:'URW Bookman L';-inkscape-font-specification:'URW Bookman L';display:inline;overflow:visible;visibility:visible;fill:#808080;fill-opacity:1;fill-rule:nonzero;stroke:none;stroke-width:10;marker:none;enable-background:accumulate"
           id="path3031" />
      </g>
      <g
         transform="matrix(3.3029161,0,0,3.3029161,-35.577821,-1178.6519)"
         id="g3033"
         style="color:#000000;font-weight:normal;font-size:139.291px;line-height:125%;font-family:'Liberation Serif';-inkscape-font-specification:'Liberation Serif';display:inline;overflow:visible;visibility:visible;fill:#808080;fill-opacity:1;fill-rule:nonzero;stroke:none;stroke-width:10;marker:none;enable-background:accumulate">
        <path
           sodipodi:nodetypes="cccsscssccccsccscsscccc"
           inkscape:connector-curvature="0"
           d="m 435.57667,463.33058 -28.07139,1.89188 v 7.344 h 2.16 c 8.784,0 9.216,0.57601 9.216,13.968 v 25.056 6.624 c 0,5.90399 -1.584,6.768 -10.8,6.768 h -0.576 v 7.344 h 48.096 v -7.344 h -3.168 c -9.21599,0 -12.76429,-0.86401 -12.76429,-6.768 -0.0664,-3.50465 0.10209,-7.42552 -0.0607,-10.67831 0.48148,-6.5818 2.83776,-26.07463 12.81479,-31.37174 2.9954,-1.59035 7.45013,0.41787 9.95737,2.08937 2.36795,1.81078 4.59661,4.50724 7.10385,4.50724 4.59661,0 7.9396,-7.20371 7.9396,-11.66102 0,-4.59661 -4.17874,-7.80031 -10.16826,-7.80031 -12.01371,-0.99261 -24.88244,7.09205 -31.64735,12.57549 l 0.17991,-0.35847 c -0.12363,-3.74975 -0.1709,-7.51465 -0.1709,-11.30225"
           style="color:#000000;font-family:'URW Bookman L';-inkscape-font-specification:'URW Bookman L';display:inline;overflow:visible;visibility:visible;fill:#808080;fill-opacity:1;fill-rule:nonzero;stroke:none;stroke-width:10;marker:none;enable-background:accumulate"
           id="path3035" />
      </g>
      <path
         sodipodi:nodetypes="ccssszzsscccsscssscssccssscc"
         inkscape:connector-curvature="0"
         id="path3037"
         style="color:#000000;font-family:'Century Schoolbook L';-inkscape-font-specification:'Century Schoolbook L Bold';display:inline;overflow:visible;visibility:visible;fill:#808080;fill-opacity:1;fill-rule:nonzero;stroke:none;stroke-width:33.0292;marker:none;enable-background:accumulate"
         d="m 1261.4815,428.33062 c 0,-30.91527 -5.7074,-45.65952 -22.3541,-58.97687 -17.598,-14.2686 -47.5621,-21.87854 -84.6604,-21.87854 -65.6354,0 -108.4413,24.25667 -108.4413,61.35499 0,20.45163 16.6468,35.67149 38.5252,35.67149 21.8785,0 21.3436,-17.56738 18.1787,-31.05227 -3.1649,-13.48489 -1.1212,-16.70541 6.755,-24.97949 7.8761,-8.27406 19.299,-16.26246 38.3238,-16.26246 28.5371,0 39.0008,12.36615 39.0008,45.18389 v 24.73223 c -5.2319,1.42687 -11.4149,2.85373 -15.6954,3.32934 -48.0377,10.46363 -64.6844,14.74422 -87.0386,23.781 -34.7201,14.26859 -50.8913,33.29343 -50.8913,61.83058 0,35.19584 27.1105,55.64754 73.2455,55.64754 40.9033,0 65.6355,-9.0368 90.8434,-33.76902 8.0856,21.40286 26.1591,33.76902 50.4158,33.76902 27.1103,0 52.3182,-19.02483 52.3182,-39.47645 0,-4.7562 -2.8538,-7.60992 -7.1344,-7.60992 -2.8536,0 -5.7074,0.95122 -9.5124,3.32932 -4.2805,2.85373 -5.7074,3.32936 -9.0368,3.32936 -10.4636,0 -12.8417,-6.65873 -12.8417,-34.24465 v -83.70909 m -74.6723,39.47644 v 26.63472 c 0,36.62271 -17.1223,59.92812 -43.7571,59.92812 -18.5491,0 -30.4397,-12.84178 -30.4397,-33.2934 0,-25.20782 14.7443,-39.47646 48.989,-47.56199 l 25.2078,-5.70745" />
    </g>
    <g
       id="Layer_1"
       data-name="Layer 1"
       transform="matrix(0.09190652,0,0,0.09190652,148.83832,37.718764)">
      <path
         class="cls-1"
         d="m 299.23,125 a 5.76,5.76 0 0 1 1.62,0.45 5.58,5.58 0 0 1 1.38,0.93 17,17 0 0 1 1.49,1.62 l 41.51,52.47 c -0.17,-1.67 -0.28,-3.31 -0.36,-4.88 -0.08,-1.57 -0.12,-3.07 -0.12,-4.47 v -46.29 h 17.87 v 87.38 h -10.56 a 9.68,9.68 0 0 1 -3.95,-0.72 8.47,8.47 0 0 1 -3.12,-2.64 l -41.21,-52 c 0.13,1.51 0.22,3 0.3,4.46 0.08,1.46 0.13,2.83 0.13,4.11 v 46.84 H 286.33 V 124.83 H 297 a 17.21,17.21 0 0 1 2.23,0.17 z"
         id="path2696" />
      <path
         class="cls-1"
         d="m 392,150 v 39.46 q 0,4.62 2.1,7.14 a 7.62,7.62 0 0 0 6.18,2.52 13.26,13.26 0 0 0 5.73,-1.26 21.37,21.37 0 0 0 5.19,-3.54 V 150 h 18.59 v 62.19 h -11.51 a 4.39,4.39 0 0 1 -4.57,-3.12 l -1.13,-3.6 a 37.32,37.32 0 0 1 -3.72,3.16 23.32,23.32 0 0 1 -4.11,2.39 24.55,24.55 0 0 1 -4.75,1.58 25,25 0 0 1 -5.51,0.57 21.75,21.75 0 0 1 -9,-1.77 18.67,18.67 0 0 1 -6.63,-4.94 21.68,21.68 0 0 1 -4.08,-7.5 31,31 0 0 1 -1.38,-9.48 V 150 Z"
         id="path2698" />
      <path
         class="cls-1"
         d="M 441.78,212.21 V 150 h 11.52 a 5.13,5.13 0 0 1 2.91,0.78 4.21,4.21 0 0 1 1.65,2.34 l 1,3.36 a 33.22,33.22 0 0 1 3.23,-3 20.83,20.83 0 0 1 3.63,-2.34 19.68,19.68 0 0 1 9.15,-2.13 14.6,14.6 0 0 1 9.33,2.91 18.14,18.14 0 0 1 5.6,7.76 18.71,18.71 0 0 1 3.81,-4.92 20.42,20.42 0 0 1 4.86,-3.29 23.69,23.69 0 0 1 5.51,-1.86 28.63,28.63 0 0 1 5.8,-0.6 26.3,26.3 0 0 1 9.47,1.59 18.05,18.05 0 0 1 6.93,4.62 20.15,20.15 0 0 1 4.23,7.44 32,32 0 0 1 1.44,10 v 39.52 h -18.6 v -39.49 q 0,-9.66 -8.27,-9.65 a 8.46,8.46 0 0 0 -6.27,2.49 q -2.49,2.47 -2.49,7.16 v 39.52 h -18.57 v -39.52 q 0,-5.34 -2.1,-7.5 c -1.4,-1.44 -3.46,-2.15 -6.18,-2.15 a 10.53,10.53 0 0 0 -4.77,1.13 17.72,17.72 0 0 0 -4.23,3.06 v 45 z"
         id="path2700" />
      <path
         class="cls-1"
         d="m 562.93,183 v 29.21 h -20.27 v -87.38 h 30.82 a 50.86,50.86 0 0 1 15.87,2.17 30.49,30.49 0 0 1 10.91,6 23.36,23.36 0 0 1 6.33,9.06 30.63,30.63 0 0 1 2,11.27 33.11,33.11 0 0 1 -2.1,12 24.08,24.08 0 0 1 -6.42,9.36 30,30 0 0 1 -10.94,6.08 49.9,49.9 0 0 1 -15.65,2.23 z m 0,-15.29 h 10.55 c 5.28,0 9.08,-1.25 11.4,-3.78 2.32,-2.53 3.48,-6 3.48,-10.55 a 15.79,15.79 0 0 0 -0.9,-5.46 11.11,11.11 0 0 0 -2.73,-4.23 12.41,12.41 0 0 0 -4.62,-2.73 20.71,20.71 0 0 0 -6.63,-1 h -10.55 z"
         id="path2702" />
      <path
         class="cls-1"
         d="m 644.61,228.35 a 6.69,6.69 0 0 1 -2,2.72 6.62,6.62 0 0 1 -3.84,0.87 h -13.95 l 12,-25.18 L 612,150 h 16.43 a 5.25,5.25 0 0 1 3.36,1 5.15,5.15 0 0 1 1.68,2.28 l 10.19,26.81 a 59,59 0 0 1 2.34,7.41 c 0.4,-1.28 0.84,-2.54 1.32,-3.77 0.48,-1.23 0.94,-2.5 1.38,-3.78 l 9.24,-26.69 a 4.5,4.5 0 0 1 1.89,-2.31 5.4,5.4 0 0 1 3,-0.93 h 15 z"
         id="path2704" />
      <polygon
         class="cls-2"
         points="92.63,117.15 132.38,96.4 95.25,77.66 54.49,98 "
         id="polygon2706" />
      <polygon
         class="cls-2"
         points="109.75,125.75 149.41,104.99 188.34,124.65 147.95,144.93 "
         id="polygon2708" />
      <polygon
         class="cls-2"
         points="166.62,96.28 201.41,77.94 241.41,98 205.63,115.96 "
         id="polygon2710" />
      <polygon
         class="cls-2"
         points="149.67,87.73 184.19,69.3 148.18,51.24 112.56,69.02 "
         id="polygon2712" />
      <polygon
         class="cls-2"
         points="199.62,202.57 156.04,224.36 156.04,273.5 199.66,251.73 "
         id="polygon2714" />
      <polygon
         class="cls-2"
         points="156.04,207.06 199.6,185.41 199.55,136.77 156.04,158.4 "
         id="polygon2716" />
      <polygon
         class="cls-2"
         points="214.73,195.09 251.97,176.3 251.97,225.63 214.76,244.19 "
         id="polygon2718" />
      <polygon
         class="cls-2"
         points="214.72,177.98 251.97,159.05 251.97,110.71 214.69,129.24 "
         id="polygon2720" />
      <path
         class="cls-1"
         d="m 140.64,158.4 -29.38,-14.78 v 63.84 c 0,0 -35.94,-76.46 -39.26,-83.33 -0.43,-0.89 -2.19,-1.86 -2.64,-2.1 C 62.88,118.65 44,109.09 44,109.09 v 112.83 l 26.12,14 v -59 c 0,0 35.55,68.32 35.92,69.07 0.37,0.75 3.92,7.94 7.74,10.47 5.07,3.37 26.84,16.46 26.84,16.46 z"
         id="path2722" />
    </g>
    <g
       id="Layer_1-2"
       data-name="Layer 1"
       transform="matrix(0.11379236,0,0,0.11379236,233.20817,50.68869)">
      <polygon
         class="cls-1"
         points="50.5,130.4 25.5,173.71 75.5,173.71 100.5,130.4 "
         id="polygon2855" />
      <polygon
         class="cls-1"
         points="0.5,217.01 25.5,173.71 75.5,173.71 50.5,217.01 "
         id="polygon2857" />
      <polygon
         class="cls-1"
         points="125.5,173.71 75.5,173.71 50.5,217.01 100.5,217.01 "
         id="polygon2859" />
      <polygon
         class="cls-1"
         points="175.5,173.71 125.5,173.71 100.5,217.01 150.5,217.01 "
         id="polygon2861" />
      <polygon
         class="cls-1"
         points="150.5,130.4 125.5,173.71 175.5,173.71 200.5,130.4 "
         id="polygon2863" />
      <polygon
         class="cls-1"
         points="175.5,87.1 150.5,130.4 200.5,130.4 225.5,87.1 "
         id="polygon2865" />
      <polygon
         class="cls-1"
         points="200.5,43.8 175.5,87.1 225.5,87.1 250.5,43.8 "
         id="polygon2867" />
      <polygon
         class="cls-1"
         points="225.5,0.5 200.5,43.8 250.5,43.8 275.5,0.5 "
         id="polygon2869" />
      <polygon
         class="cls-2"
         points="0.5,217.01 25.5,260.31 75.5,260.31 50.5,217.01 "
         id="polygon2871" />
      <polygon
         class="cls-2"
         points="125.5,260.31 75.5,260.31 50.5,217.01 100.5,217.01 "
         id="polygon2873" />
      <polygon
         class="cls-2"
         points="175.5,260.31 125.5,260.31 100.5,217.01 150.5,217.01 "
         id="polygon2875" />
      <polygon
         class="cls-3"
         points="200.5,217.01 175.5,173.71 150.5,217.01 175.5,260.31 "
         id="polygon2877" />
      <polygon
         class="cls-3"
         points="250.5,130.4 225.5,87.1 200.5,130.4 "
         id="polygon2879" />
      <polygon
         class="cls-3"
         points="250.5,43.8 225.5,87.1 250.5,130.4 275.5,87.1 "
         id="polygon2881" />
      <polygon
         class="cls-4"
         points="125.5,173.71 100.5,130.4 75.5,173.71 "
         id="polygon2883" />
      <polygon
         class="cls-5"
         points="250.5,130.4 200.5,130.4 175.5,173.71 225.5,173.71 "
         id="polygon2885" />
      <polygon
         class="cls-5"
         points="300.5,130.4 250.5,130.4 225.5,173.71 275.5,173.71 "
         id="polygon2887" />
      <polygon
         class="cls-6"
         points="350.5,43.8 325.5,0.5 300.5,43.8 325.5,87.1 "
         id="polygon2889" />
      <polygon
         class="cls-6"
         points="375.5,87.1 350.5,43.8 325.5,87.1 350.5,130.4 "
         id="polygon2891" />
      <polygon
         class="cls-6"
         points="400.5,130.4 375.5,87.1 350.5,130.4 375.5,173.71 "
         id="polygon2893" />
      <polygon
         class="cls-6"
         points="425.5,173.71 400.5,130.4 375.5,173.71 400.5,217.01 "
         id="polygon2895" />
      <polygon
         class="cls-6"
         points="450.5,217.01 425.5,173.71 400.5,217.01 425.5,260.31 "
         id="polygon2897" />
      <polygon
         class="cls-6"
         points="425.5,0.5 400.5,43.8 425.5,87.1 450.5,43.8 "
         id="polygon2899" />
      <polygon
         class="cls-6"
         points="375.5,87.1 400.5,43.8 425.5,87.1 400.5,130.4 "
         id="polygon2901" />
      <polygon
         class="cls-6"
         points="350.5,130.4 325.5,173.71 350.5,217.01 375.5,173.71 "
         id="polygon2903" />
      <polygon
         class="cls-6"
         points="325.5,260.31 300.5,217.01 325.5,173.71 350.5,217.01 "
         id="polygon2905" />
      <polygon
         class="cls-7"
         points="275.5,260.31 250.5,217.01 300.5,217.01 325.5,260.31 "
         id="polygon2907" />
      <polygon
         class="cls-8"
         points="225.5,173.71 175.5,173.71 200.5,217.01 250.5,217.01 "
         id="polygon2909" />
      <polygon
         class="cls-8"
         points="275.5,173.71 225.5,173.71 250.5,217.01 "
         id="polygon2911" />
      <polygon
         class="cls-8"
         points="275.5,87.1 300.5,130.4 350.5,130.4 325.5,87.1 "
         id="polygon2913" />
      <polygon
         class="cls-8"
         points="300.5,43.8 250.5,43.8 275.5,87.1 325.5,87.1 "
         id="polygon2915" />
      <polygon
         class="cls-8"
         points="425.5,260.31 400.5,217.01 350.5,217.01 375.5,260.31 "
         id="polygon2917" />
      <polygon
         class="cls-8"
         points="375.5,173.71 350.5,217.01 400.5,217.01 "
         id="polygon2919" />
      <polygon
         class="cls-9"
         points="325.5,0.5 275.5,0.5 250.5,43.8 300.5,43.8 "
         id="polygon2921" />
      <polygon
         class="cls-9"
         points="325.5,173.71 275.5,173.71 250.5,217.01 300.5,217.01 "
         id="polygon2923" />
      <polygon
         class="cls-9"
         points="350.5,130.4 300.5,130.4 275.5,173.71 325.5,173.71 "
         id="polygon2925" />
      <polygon
         class="cls-9"
         points="425.5,0.5 375.5,0.5 350.5,43.8 400.5,43.8 "
         id="polygon2927" />
      <polygon
         class="cls-9"
         points="375.5,87.1 350.5,43.8 400.5,43.8 "
         id="polygon2929" />
    </g>
    <path
       style="font-variation-settings:normal;opacity:1;fill:none;fill-opacity:1;stroke:#000000;stroke-width:1;stroke-linecap:butt;stroke-linejoin:miter;stroke-miterlimit:4;stroke-dasharray:none;stroke-dashoffset:0;stroke-opacity:1;marker-start:url(#Arrow1Mstart);marker-end:url(#Arrow1Mend);stop-color:#000000;stop-opacity:1"
       d="M 11.692043,33.720166 V 170.68076 H 304.5055"
       id="path3257" />
    <text
       xml:space="preserve"
       style="font-size:10.9125px;line-height:1.25;font-family:'Nimbus Sans';-inkscape-font-specification:'Nimbus Sans';text-align:center;text-anchor:middle;stroke-width:0.454688"
       x="-140.49324"
       y="4.1651068"
       id="text12765"
       transform="rotate(-90)"><tspan
         sodipodi:role="line"
         id="tspan12763"
         style="stroke-width:0.454688"
         x="-140.49324"
         y="4.1651068">imperative</tspan></text>
    <text
       xml:space="preserve"
       style="font-size:10.9125px;line-height:1.25;font-family:'Nimbus Sans';-inkscape-font-specification:'Nimbus Sans';text-align:center;text-anchor:middle;stroke-width:0.454688"
       x="-65.249519"
       y="4.1651068"
       id="text12929"
       transform="rotate(-90)"><tspan
         sodipodi:role="line"
         id="tspan12927"
         style="stroke-width:0.454688"
         x="-65.249519"
         y="4.1651068">vectorized</tspan></text>
    <text
       xml:space="preserve"
       style="font-size:10.9125px;line-height:1.25;font-family:'Nimbus Sans';-inkscape-font-specification:'Nimbus Sans';text-align:center;text-anchor:middle;stroke-width:0.454688"
       x="63.046162"
       y="187.56334"
       id="text13899"><tspan
         sodipodi:role="line"
         id="tspan13897"
         style="stroke-width:0.454688"
         x="63.046162"
         y="187.56334">slow</tspan></text>
    <text
       xml:space="preserve"
       style="font-size:10.9125px;line-height:1.25;font-family:'Nimbus Sans';-inkscape-font-specification:'Nimbus Sans';text-align:center;text-anchor:middle;stroke-width:0.454688"
       x="258.90109"
       y="187.56334"
       id="text14005"><tspan
         sodipodi:role="line"
         id="tspan14003"
         style="stroke-width:0.454688"
         x="258.90109"
         y="187.56334">fast</tspan></text>
  </g>
  <style
     type="text/css"
     id="style2577">
	.st0{fill:none;}
	.st1{fill:url(#SVGID_1_);}
	.st2{fill:#00A3E0;}
</style>
</svg>
